<?xml version="1.0" encoding="UTF-8"?>
<svg width="700pt" height="700pt" version="1.1" viewBox="0 0 700 700" xmlns="http://www.w3.org/2000/svg" xmlns:xlink="http://www.w3.org/1999/xlink">
 <defs>
  <symbol id="h" overflow="visible">
   <path d="m25.125-1.5c-1.293 0.66797-2.6406 1.1719-4.0469 1.5156-1.3984 0.34375-2.8594 0.51562-4.3906 0.51562-4.5547 0-8.1641-1.2695-10.828-3.8125-2.6562-2.5508-3.9844-6.0039-3.9844-10.359 0-4.375 1.3281-7.832 3.9844-10.375 2.6641-2.5508 6.2734-3.8281 10.828-3.8281 1.5312 0 2.9922 0.17188 4.3906 0.51562 1.4062 0.34375 2.7539 0.85156 4.0469 1.5156v5.6562c-1.3047-0.88281-2.5898-1.5352-3.8594-1.9531-1.2734-0.41406-2.6094-0.625-4.0156-0.625-2.5117 0-4.4922 0.80859-5.9375 2.4219-1.4375 1.6172-2.1562 3.8398-2.1562 6.6719 0 2.8125 0.71875 5.0273 2.1562 6.6406 1.4453 1.6172 3.4258 2.4219 5.9375 2.4219 1.4062 0 2.7422-0.20703 4.0156-0.625 1.2695-0.41406 2.5547-1.0664 3.8594-1.9531z"/>
  </symbol>
  <symbol id="b" overflow="visible">
   <path d="m18.391-14.922c-0.57422-0.26953-1.1484-0.46875-1.7188-0.59375-0.5625-0.13281-1.1328-0.20312-1.7031-0.20312-1.6875 0-2.9922 0.54297-3.9062 1.625-0.90625 1.0859-1.3594 2.6328-1.3594 4.6406v9.4531h-6.5469v-20.516h6.5469v3.375c0.84375-1.3438 1.8125-2.3203 2.9062-2.9375 1.0938-0.625 2.4062-0.9375 3.9375-0.9375 0.21875 0 0.45312 0.011719 0.70312 0.03125 0.25781 0.023437 0.63281 0.0625 1.125 0.125z"/>
  </symbol>
  <symbol id="a" overflow="visible">
   <path d="m23.625-10.312v1.875h-15.328c0.15625 1.5312 0.70703 2.6836 1.6562 3.4531 0.95703 0.77344 2.2891 1.1562 4 1.1562 1.3828 0 2.8008-0.20312 4.25-0.60938 1.4453-0.41406 2.9297-1.0352 4.4531-1.8594v5.0469c-1.5547 0.59375-3.1055 1.0391-4.6562 1.3281-1.543 0.30078-3.0898 0.45312-4.6406 0.45312-3.7188 0-6.6094-0.94141-8.6719-2.8281-2.0547-1.8828-3.0781-4.5312-3.0781-7.9375 0-3.3516 1.0078-5.9883 3.0312-7.9062 2.0195-1.9141 4.8008-2.875 8.3438-2.875 3.2266 0 5.8047 0.97656 7.7344 2.9219 1.9375 1.9375 2.9062 4.5312 2.9062 7.7812zm-6.7344-2.1875c0-1.2383-0.36719-2.2383-1.0938-3-0.73047-0.76953-1.6797-1.1562-2.8438-1.1562-1.2734 0-2.3047 0.35938-3.0938 1.0781-0.79297 0.71094-1.2891 1.7344-1.4844 3.0781z"/>
  </symbol>
  <symbol id="e" overflow="visible">
   <path d="m12.344-9.2344c-1.3672 0-2.3984 0.23438-3.0938 0.70312-0.6875 0.46094-1.0312 1.1406-1.0312 2.0469 0 0.83594 0.27344 1.4844 0.82812 1.9531 0.5625 0.46875 1.3359 0.70312 2.3281 0.70312 1.2266 0 2.2656-0.44141 3.1094-1.3281 0.84375-0.88281 1.2656-1.9922 1.2656-3.3281v-0.75zm10.016-2.4688v11.703h-6.6094v-3.0469c-0.875 1.25-1.8672 2.1641-2.9688 2.7344-1.0938 0.5625-2.4297 0.84375-4 0.84375-2.125 0-3.8555-0.61719-5.1875-1.8594-1.3242-1.2383-1.9844-2.8477-1.9844-4.8281 0-2.4062 0.82812-4.1719 2.4844-5.2969s4.2539-1.6875 7.7969-1.6875h3.8594v-0.5c0-1.0391-0.41406-1.8008-1.2344-2.2812-0.8125-0.48828-2.0859-0.73438-3.8125-0.73438-1.4062 0-2.7148 0.14062-3.9219 0.42188-1.2109 0.28125-2.3359 0.70312-3.375 1.2656v-5c1.4062-0.34375 2.8164-0.60156 4.2344-0.78125 1.4141-0.17578 2.832-0.26562 4.25-0.26562 3.6953 0 6.3633 0.73047 8 2.1875 1.6445 1.4609 2.4688 3.8359 2.4688 7.125z"/>
  </symbol>
  <symbol id="d" overflow="visible">
   <path d="m10.312-26.344v5.8281h6.7656v4.6875h-6.7656v8.7031c0 0.94922 0.1875 1.5938 0.5625 1.9375 0.38281 0.33594 1.1406 0.5 2.2656 0.5h3.3594v4.6875h-5.625c-2.5859 0-4.418-0.53906-5.5-1.625-1.0859-1.082-1.625-2.9141-1.625-5.5v-8.7031h-3.25v-4.6875h3.25v-5.8281z"/>
  </symbol>
  <symbol id="l" overflow="visible">
   <path d="m17.109-17.516v-10.984h6.5938v28.5h-6.5938v-2.9688c-0.90625 1.2109-1.9023 2.0938-2.9844 2.6562-1.0859 0.5625-2.3438 0.84375-3.7812 0.84375-2.5234 0-4.5938-1.0039-6.2188-3.0156-1.625-2.0078-2.4375-4.5938-2.4375-7.75 0-3.1641 0.8125-5.7539 2.4375-7.7656 1.625-2.0078 3.6953-3.0156 6.2188-3.0156 1.4141 0 2.6719 0.28906 3.7656 0.85938 1.0938 0.5625 2.0938 1.4453 3 2.6406zm-4.3281 13.281c1.4062 0 2.4766-0.50781 3.2188-1.5312 0.73828-1.0312 1.1094-2.5195 1.1094-4.4688 0-1.957-0.37109-3.4453-1.1094-4.4688-0.74219-1.0312-1.8125-1.5469-3.2188-1.5469-1.3867 0-2.4492 0.51562-3.1875 1.5469-0.74219 1.0234-1.1094 2.5117-1.1094 4.4688 0 1.9492 0.36719 3.4375 1.1094 4.4688 0.73828 1.0234 1.8008 1.5312 3.1875 1.5312z"/>
  </symbol>
  <symbol id="k" overflow="visible">
   <path d="m14.062-4.2344c1.4062 0 2.4766-0.50781 3.2188-1.5312 0.73828-1.0312 1.1094-2.5195 1.1094-4.4688 0-1.957-0.37109-3.4453-1.1094-4.4688-0.74219-1.0312-1.8125-1.5469-3.2188-1.5469-1.3984 0-2.4766 0.51562-3.2344 1.5469-0.75 1.0312-1.125 2.5234-1.125 4.4688 0 1.9375 0.375 3.4219 1.125 4.4531 0.75781 1.0312 1.8359 1.5469 3.2344 1.5469zm-4.3594-13.281c0.90625-1.1953 1.9062-2.0781 3-2.6406 1.1016-0.57031 2.3672-0.85938 3.7969-0.85938 2.5312 0 4.6094 1.0078 6.2344 3.0156 1.625 2.0117 2.4375 4.6016 2.4375 7.7656 0 3.1562-0.8125 5.7422-2.4375 7.75-1.625 2.0117-3.7031 3.0156-6.2344 3.0156-1.4297 0-2.6953-0.28125-3.7969-0.84375-1.0938-0.57031-2.0938-1.457-3-2.6562v2.9688h-6.5469v-28.5h6.5469z"/>
  </symbol>
  <symbol id="j" overflow="visible">
   <path d="m0.45312-20.516h6.5625l5.5156 13.922 4.6875-13.922h6.5625l-8.625 22.453c-0.875 2.2891-1.8906 3.8906-3.0469 4.7969-1.1484 0.90625-2.668 1.3594-4.5625 1.3594h-3.7969v-4.2969h2.0625c1.1016 0 1.9102-0.17969 2.4219-0.53125 0.50781-0.35547 0.90625-0.99219 1.1875-1.9062l0.17188-0.57812z"/>
  </symbol>
  <symbol id="i" overflow="visible">
   <path d="m3.4375-27.344h7.0625v22.016h12.375v5.3281h-19.438z"/>
  </symbol>
  <symbol id="g" overflow="visible">
   <path d="m2.9375-7.9844v-12.531h6.5938v2.0469c0 1.1172-0.011719 2.5117-0.03125 4.1875-0.011719 1.6797-0.015625 2.7969-0.015625 3.3594 0 1.6562 0.039063 2.8516 0.125 3.5781 0.09375 0.71875 0.24219 1.2461 0.45312 1.5781 0.25781 0.42969 0.60938 0.75781 1.0469 0.98438 0.4375 0.23047 0.9375 0.34375 1.5 0.34375 1.3633 0 2.4375-0.51953 3.2188-1.5625 0.78125-1.0508 1.1719-2.5156 1.1719-4.3906v-10.125h6.5625v20.516h-6.5625v-2.9688c-0.99219 1.1992-2.0391 2.0859-3.1406 2.6562-1.1055 0.5625-2.3242 0.84375-3.6562 0.84375-2.3672 0-4.168-0.72266-5.4062-2.1719-1.2422-1.457-1.8594-3.5703-1.8594-6.3438z"/>
  </symbol>
  <symbol id="w" overflow="visible">
   <path d="m3.1562-20.516h6.5469v20.516h-6.5469zm0-7.9844h6.5469v5.3438h-6.5469z"/>
  </symbol>
  <symbol id="v" overflow="visible">
   <path d="m2.1406-20.516h17.906v4.5781l-10.812 11.25h10.812v4.6875h-18.359v-4.5781l10.812-11.25h-10.359z"/>
  </symbol>
  <symbol id="u" overflow="visible">
   <path d="m0.5625-20.516h6.5625l5.1094 14.172 5.0938-14.172h6.5781l-8.0781 20.516h-7.2031z"/>
  </symbol>
  <symbol id="t" overflow="visible">
   <path d="m3.1562-28.5h6.5469v28.5h-6.5469z"/>
  </symbol>
  <symbol id="f" overflow="visible">
   <path d="m23.781-12.5v12.5h-6.5938v-9.5312c0-1.7891-0.042969-3.0195-0.125-3.6875-0.085938-0.67578-0.21875-1.1719-0.40625-1.4844-0.26172-0.42578-0.60938-0.75781-1.0469-1-0.4375-0.23828-0.9375-0.35938-1.5-0.35938-1.375 0-2.4531 0.53125-3.2344 1.5938-0.78125 1.0547-1.1719 2.5117-1.1719 4.375v10.094h-6.5469v-28.5h6.5469v10.984c0.98828-1.1953 2.0391-2.0781 3.1562-2.6406 1.1133-0.57031 2.3438-0.85938 3.6875-0.85938 2.3633 0 4.1602 0.73047 5.3906 2.1875 1.2266 1.4492 1.8438 3.5586 1.8438 6.3281z"/>
  </symbol>
  <symbol id="c" overflow="visible">
   <path d="m12.922-16.328c-1.4609 0-2.5742 0.52734-3.3438 1.5781-0.76172 1.043-1.1406 2.5469-1.1406 4.5156 0 1.9609 0.37891 3.4648 1.1406 4.5156 0.76953 1.043 1.8828 1.5625 3.3438 1.5625 1.4258 0 2.5156-0.51953 3.2656-1.5625 0.75781-1.0508 1.1406-2.5547 1.1406-4.5156 0-1.9688-0.38281-3.4727-1.1406-4.5156-0.75-1.0508-1.8398-1.5781-3.2656-1.5781zm0-4.6875c3.5195 0 6.2695 0.95312 8.25 2.8594 1.9883 1.9062 2.9844 4.5469 2.9844 7.9219 0 3.3672-0.99609 6-2.9844 7.9062-1.9805 1.9062-4.7305 2.8594-8.25 2.8594-3.543 0-6.3125-0.95312-8.3125-2.8594s-3-4.5391-3-7.9062c0-3.375 1-6.0156 3-7.9219s4.7695-2.8594 8.3125-2.8594z"/>
  </symbol>
  <symbol id="s" overflow="visible">
   <path d="m16.656-28.5v4.2969h-3.625c-0.9375 0-1.5898 0.17188-1.9531 0.51562-0.36719 0.33594-0.54688 0.91797-0.54688 1.75v1.4219h5.6094v4.6875h-5.6094v15.828h-6.5625v-15.828h-3.25v-4.6875h3.25v-1.4219c0-2.2383 0.625-3.8906 1.875-4.9531 1.25-1.0703 3.1758-1.6094 5.7812-1.6094z"/>
  </symbol>
  <symbol id="r" overflow="visible">
   <path d="m22.172-17.109c0.82031-1.2695 1.8047-2.2383 2.9531-2.9062 1.1445-0.66406 2.3984-1 3.7656-1 2.3516 0 4.1445 0.73047 5.375 2.1875 1.2383 1.4492 1.8594 3.5586 1.8594 6.3281v12.5h-6.5938v-10.703c0.007812-0.15625 0.015625-0.31641 0.015625-0.48438 0.007813-0.17578 0.015625-0.42188 0.015625-0.73438 0-1.457-0.21484-2.5078-0.64062-3.1562-0.42969-0.65625-1.1172-0.98438-2.0625-0.98438-1.25 0-2.2148 0.51562-2.8906 1.5469-0.67969 1.0234-1.0273 2.5-1.0469 4.4375v10.078h-6.5938v-10.703c0-2.2695-0.19922-3.7266-0.59375-4.375-0.38672-0.65625-1.0859-0.98438-2.0938-0.98438-1.25 0-2.2188 0.51562-2.9062 1.5469s-1.0312 2.5078-1.0312 4.4219v10.094h-6.5938v-20.516h6.5938v3c0.8125-1.1562 1.7383-2.0234 2.7812-2.6094 1.0391-0.59375 2.1914-0.89062 3.4531-0.89062 1.4141 0 2.6641 0.34375 3.75 1.0312 1.0938 0.6875 1.9219 1.6484 2.4844 2.875z"/>
  </symbol>
  <symbol id="q" overflow="visible">
   <path d="m3.4375-27.344h7.8906l9.9375 18.75v-18.75h6.6875v27.344h-7.875l-9.9531-18.766v18.766h-6.6875z"/>
  </symbol>
  <symbol id="p" overflow="visible">
   <path d="m23.781-12.5v12.5h-6.5938v-9.5625c0-1.7695-0.042969-2.9883-0.125-3.6562-0.085938-0.67578-0.21875-1.1719-0.40625-1.4844-0.26172-0.42578-0.60938-0.75781-1.0469-1-0.4375-0.23828-0.9375-0.35938-1.5-0.35938-1.375 0-2.4531 0.53125-3.2344 1.5938-0.78125 1.0547-1.1719 2.5117-1.1719 4.375v10.094h-6.5469v-20.516h6.5469v3c0.98828-1.1953 2.0391-2.0781 3.1562-2.6406 1.1133-0.57031 2.3438-0.85938 3.6875-0.85938 2.3633 0 4.1602 0.73047 5.3906 2.1875 1.2266 1.4492 1.8438 3.5586 1.8438 6.3281z"/>
  </symbol>
  <symbol id="o" overflow="visible">
   <path d="m3.4375-27.344h11.719c3.4766 0 6.1445 0.77344 8 2.3125 1.8633 1.543 2.7969 3.7461 2.7969 6.6094 0 2.8672-0.93359 5.0742-2.7969 6.625-1.8555 1.543-4.5234 2.3125-8 2.3125h-4.6562v9.4844h-7.0625zm7.0625 5.1094v7.6406h3.8906c1.375 0 2.4297-0.33203 3.1719-1 0.75-0.66406 1.125-1.6094 1.125-2.8281 0-1.2266-0.375-2.1719-1.125-2.8281-0.74219-0.65625-1.7969-0.98438-3.1719-0.98438z"/>
  </symbol>
  <symbol id="n" overflow="visible">
   <path d="m3.1562-20.516h6.5469v20.156c0 2.7383-0.66406 4.832-1.9844 6.2812-1.3125 1.4453-3.2188 2.1719-5.7188 2.1719h-3.25v-4.2969h1.1406c1.25 0 2.1016-0.28125 2.5625-0.84375 0.46875-0.5625 0.70312-1.668 0.70312-3.3125zm0-7.9844h6.5469v5.3438h-6.5469z"/>
  </symbol>
  <symbol id="m" overflow="visible">
   <path d="m19.734-19.875v5.3438c-0.89844-0.60156-1.793-1.0508-2.6875-1.3438-0.89844-0.30078-1.8281-0.45312-2.7969-0.45312-1.8359 0-3.2617 0.53906-4.2812 1.6094-1.0234 1.0742-1.5312 2.5703-1.5312 4.4844 0 1.918 0.50781 3.4141 1.5312 4.4844 1.0195 1.0625 2.4453 1.5938 4.2812 1.5938 1.0312 0 2.0039-0.14844 2.9219-0.45312 0.92578-0.3125 1.7812-0.76562 2.5625-1.3594v5.3594c-1.0312 0.38672-2.0781 0.67188-3.1406 0.85938-1.0547 0.1875-2.1094 0.28125-3.1719 0.28125-3.6992 0-6.5938-0.94531-8.6875-2.8438-2.0859-1.9062-3.125-4.5469-3.125-7.9219 0-3.3828 1.0391-6.0234 3.125-7.9219 2.0938-1.9062 4.9883-2.8594 8.6875-2.8594 1.082 0 2.1445 0.10156 3.1875 0.29688 1.0391 0.1875 2.082 0.46875 3.125 0.84375z"/>
  </symbol>
 </defs>
 <g>
  <path d="m70 0h163.26v163.26h-163.26z"/>
  <path d="m268.37 0h163.26v163.26h-163.26z"/>
  <path d="m466.74 0h163.26v163.26h-163.26z"/>
  <path d="m70 198.37h163.26v163.26h-163.26z"/>
  <path d="m268.37 198.37h163.26v163.26h-163.26z"/>
  <path d="m466.74 198.37h163.26v163.26h-163.26z"/>
  <path d="m70 396.74h163.26v163.26h-163.26z"/>
  <path d="m268.37 396.74h163.26v163.26h-163.26z"/>
  <path d="m466.74 396.74h163.26v163.26h-163.26z"/>
  <use x="70" y="672.566406" xlink:href="#h"/>
  <use x="97.535156" y="672.566406" xlink:href="#b"/>
  <use x="116.042969" y="672.566406" xlink:href="#a"/>
  <use x="141.488281" y="672.566406" xlink:href="#e"/>
  <use x="166.808594" y="672.566406" xlink:href="#d"/>
  <use x="184.746094" y="672.566406" xlink:href="#a"/>
  <use x="210.195312" y="672.566406" xlink:href="#l"/>
  <use x="250.113281" y="672.566406" xlink:href="#k"/>
  <use x="276.972656" y="672.566406" xlink:href="#j"/>
  <use x="314.496094" y="672.566406" xlink:href="#i"/>
  <use x="338.40625" y="672.566406" xlink:href="#g"/>
  <use x="365.117188" y="672.566406" xlink:href="#w"/>
  <use x="377.976562" y="672.566406" xlink:href="#v"/>
  <use x="412.878906" y="672.566406" xlink:href="#h"/>
  <use x="440.417969" y="672.566406" xlink:href="#e"/>
  <use x="465.738281" y="672.566406" xlink:href="#b"/>
  <use x="484.242187" y="672.566406" xlink:href="#u"/>
  <use x="508.699219" y="672.566406" xlink:href="#e"/>
  <use x="534.019531" y="672.566406" xlink:href="#t"/>
  <use x="546.878906" y="672.566406" xlink:href="#f"/>
  <use x="573.59375" y="672.566406" xlink:href="#c"/>
  <use x="70" y="710.085938" xlink:href="#s"/>
  <use x="86.324219" y="710.085938" xlink:href="#b"/>
  <use x="104.828125" y="710.085938" xlink:href="#c"/>
  <use x="130.605469" y="710.085938" xlink:href="#r"/>
  <use x="182.765625" y="710.085938" xlink:href="#d"/>
  <use x="200.703125" y="710.085938" xlink:href="#f"/>
  <use x="227.414062" y="710.085938" xlink:href="#a"/>
  <use x="265.925781" y="710.085938" xlink:href="#q"/>
  <use x="297.328125" y="710.085938" xlink:href="#c"/>
  <use x="323.105469" y="710.085938" xlink:href="#g"/>
  <use x="349.820312" y="710.085938" xlink:href="#p"/>
  <use x="389.59375" y="710.085938" xlink:href="#o"/>
  <use x="417.09375" y="710.085938" xlink:href="#b"/>
  <use x="435.597656" y="710.085938" xlink:href="#c"/>
  <use x="461.375" y="710.085938" xlink:href="#n"/>
  <use x="474.238281" y="710.085938" xlink:href="#a"/>
  <use x="499.6875" y="710.085938" xlink:href="#m"/>
  <use x="521.925781" y="710.085938" xlink:href="#d"/>
 </g>
</svg>
